<svg width="1512" height="980" viewBox="0 0 1512 980" fill="none" xmlns="http://www.w3.org/2000/svg">
<path d="M252.832 321.669C252.832 377.098 248.421 427.983 239.599 474.325C230.778 519.759 217.231 556.56 198.957 584.729C180.684 612.898 158 626.982 130.905 626.982H80.8116V970.459H0V13.63H130.905C157.37 13.63 179.739 26.8057 198.012 53.1571C216.285 79.5086 229.99 115.855 239.127 162.198C248.263 208.54 252.832 261.697 252.832 321.669ZM124.762 441.613C140.2 441.613 151.699 431.164 159.26 410.264C166.822 389.365 170.602 359.833 170.602 321.669C170.602 283.505 166.822 253.973 159.26 233.074C151.699 212.174 140.2 201.725 124.762 201.725H80.8116V441.613H124.762ZM451.802 980C420.611 980 391.941 959.101 365.792 917.302C339.957 875.503 319.321 817.348 303.883 742.837C288.761 667.418 281.198 582.911 281.198 489.318C281.198 395.726 288.761 311.674 303.883 237.163C319.321 162.652 339.957 104.497 365.792 62.6982C391.941 20.8994 420.611 0 451.802 0C482.992 0 511.505 20.8994 537.339 62.6982C563.489 104.497 583.967 162.652 598.775 237.163C613.898 311.674 621.459 395.726 621.459 489.318C621.459 582.911 613.898 667.418 598.775 742.837C583.652 817.348 563.174 875.503 537.339 917.302C511.505 959.101 482.992 980 451.802 980ZM451.802 767.371C478.266 767.371 499.375 741.929 515.128 691.043C531.196 640.158 539.229 572.916 539.229 489.318C539.229 404.812 531.196 337.571 515.128 287.594C499.375 236.708 478.266 211.266 451.802 211.266C425.022 211.266 403.598 236.254 387.53 286.231C371.778 336.208 363.901 403.904 363.901 489.318C363.901 573.825 371.778 641.521 387.53 692.406C403.598 742.383 425.022 767.371 451.802 767.371ZM858.755 970.459L747.226 547.928V970.459H666.414V13.63H747.226V433.435L857.81 13.63H952.799L824.257 482.503L957.525 970.459H858.755ZM1076.74 200.362V393.908H1184.96V573.825H1076.74V783.727H1199.14V970.459H995.93V13.63H1199.14V200.362H1076.74ZM1420.79 970.459L1351.79 609.263H1332.42V970.459H1251.61V13.63H1387.24C1413.39 13.63 1435.6 26.8057 1453.87 53.1571C1472.46 79.5086 1486.32 115.855 1495.46 162.198C1504.6 207.631 1509.16 258.516 1509.16 314.854C1509.16 378.461 1502.86 435.253 1490.26 485.229C1477.97 535.206 1459.7 570.644 1435.44 591.544L1512 970.459H1420.79ZM1332.42 444.339H1382.51C1397.32 444.339 1408.35 433.89 1415.59 412.99C1423.15 392.091 1426.94 362.559 1426.94 324.395C1426.94 288.048 1423.15 259.425 1415.59 238.526C1408.35 217.626 1397.32 207.177 1382.51 207.177H1332.42V444.339Z" fill="url(#paint0_linear_115_65)"/>
<defs>
<linearGradient id="paint0_linear_115_65" x1="756" y1="0" x2="756" y2="980" gradientUnits="userSpaceOnUse">
<stop stop-color="#961030"/>
<stop offset="1" stop-color="#33000C"/>
</linearGradient>
</defs>
</svg>
