<svg width="146" height="32" viewBox="0 0 146 32" fill="none" xmlns="http://www.w3.org/2000/svg">
<rect y="0.390625" width="31.2195" height="31.2195" rx="6.4" fill="url(#paint0_linear_919_34740)"/>
<g clip-path="url(#clip0_919_34740)">
<path d="M5.53143 15.6643C5.52259 14.6699 5.52021 13.6754 5.52422 12.6809C5.52589 12.0694 5.49079 11.4383 5.53341 10.8295C5.62129 9.57367 6.09223 8.2828 6.9859 7.37853C7.891 6.46279 9.17446 6.00503 10.4379 5.9096C10.8404 5.87918 11.2518 5.89046 11.6556 5.88711C12.8623 5.88323 14.0689 5.8876 15.2755 5.90012C15.2807 6.62846 14.8981 7.37668 14.3966 7.88576C13.2844 9.01475 12.0859 8.9644 10.6315 8.96122L8.59716 8.9625C8.58674 9.63104 8.60293 10.3017 8.60372 10.9705C8.60517 12.1695 8.61027 13.3851 7.83197 14.3757C7.22759 15.0931 6.46187 15.5377 5.53143 15.6643Z" fill="white"/>
<path d="M22.6179 8.96045L20.7228 8.95913C19.4511 8.96032 18.1748 8.98607 17.1271 8.13753C16.4103 7.55696 16.0508 6.80958 15.9519 5.90058L20.3348 5.89648C21.8362 5.89966 23.2009 6.31403 24.2757 7.40607C25.1514 8.29575 25.609 9.58463 25.7038 10.8165C25.7505 11.4244 25.7177 12.0567 25.7171 12.6669L25.7017 15.5454C24.9464 15.4978 24.1518 15.1624 23.6134 14.6271C23.2163 14.2321 22.9046 13.705 22.7558 13.1639C22.5621 12.4596 22.6163 11.6726 22.6165 10.9481L22.6179 8.96045Z" fill="white"/>
<path d="M15.6141 22.3762C15.5652 22.0274 15.5358 21.6759 15.4645 21.3305C15.198 20.0573 14.5716 18.888 13.6601 17.9621C12.7506 17.0408 11.5943 16.4036 10.331 16.1276C10.1036 16.0768 9.84167 16.008 9.60864 16.0086C9.57376 16.0086 9.59426 16.0149 9.55811 15.9825L9.57926 15.9858L9.5837 15.9715L9.60332 15.9898L9.62751 15.9681L9.65355 15.9957L9.64933 15.967C10.8971 15.9441 12.4818 15.1046 13.3921 14.2645C14.7172 13.0437 15.5072 11.3472 15.59 9.54492C15.6851 9.69476 15.6931 10.3065 15.73 10.5307C15.7873 10.8786 15.896 11.2241 16.0119 11.5563C16.6823 13.4787 18.3974 15.1206 20.3602 15.665C20.6082 15.7338 20.8606 15.7946 21.1147 15.8354C21.3047 15.8659 21.7877 15.866 21.9302 15.9349C21.8983 15.9649 21.8786 15.9678 21.8365 15.9761C21.6939 16.0046 21.5432 16.0022 21.399 16.0238C21.1486 16.0614 20.8947 16.1197 20.6501 16.1854C19.7015 16.4399 18.9286 16.8252 18.1543 17.432C16.7159 18.5592 15.873 20.2355 15.651 22.0323C15.6374 22.1468 15.625 22.2615 15.6141 22.3762Z" fill="white"/>
<path d="M15.3401 26.1127L12.2788 26.1142C11.6833 26.1143 11.0756 26.1389 10.4817 26.0912C9.02256 25.9741 7.66952 25.3587 6.71327 24.2282C6.20292 23.6171 5.84102 22.8956 5.65606 22.1205C5.50419 21.4749 5.52521 20.8081 5.52402 20.1498L5.52081 18.5029C5.5187 17.7776 5.46922 17.0249 5.52583 16.3027C6.29317 16.3964 6.99661 16.7087 7.54791 17.2577C8.61149 18.3169 8.59917 19.675 8.60207 21.0675L8.60555 23.0281C9.29025 23.0233 9.97495 23.0221 10.6597 23.0244C11.8642 23.0296 12.8793 22.9802 13.914 23.72C14.792 24.3477 15.1646 25.0702 15.3401 26.1127Z" fill="white"/>
<path d="M22.6243 23.0157C22.6331 22.2999 22.6234 21.5829 22.6255 20.8669C22.6291 19.6244 22.5914 18.5254 23.4392 17.5108C23.9877 16.8637 24.7672 16.4581 25.6106 16.3809L25.6901 16.3799L25.7135 16.4154L25.7154 19.4592C25.7161 20.0681 25.7492 20.6958 25.7092 21.3022C25.6385 22.5479 25.1081 23.7225 24.2213 24.5978C23.3211 25.4997 22.0995 25.9861 20.8422 26.0904C20.2013 26.1436 19.541 26.1152 18.8976 26.1154H16.0563C16.0174 26.1157 16.0014 26.1127 15.9657 26.1012C15.9538 26.0769 15.9505 26.0743 15.9467 26.0433C15.9373 25.9664 15.972 25.8439 15.9849 25.766C16.0908 25.1244 16.4203 24.5367 16.8812 24.0819C17.9976 22.98 19.1476 23.0073 20.5938 23.007L22.6243 23.0157Z" fill="white"/>
</g>
<path d="M40.5854 8.48535H50.0217C51.3647 8.48535 52.4514 8.8476 53.2819 9.57211C54.1301 10.2789 54.5542 11.2243 54.5542 12.4083C54.5542 13.5392 54.1743 14.3697 53.4145 14.8999C54.8458 15.6244 55.5615 16.8525 55.5615 18.5842C55.5615 19.8565 55.102 20.9344 54.1831 21.818C53.2643 22.7015 52.1157 23.1433 50.7373 23.1433H40.5854V8.48535ZM43.8987 11.454V14.1312H50.1277C50.4811 14.1312 50.7638 13.9986 50.9759 13.7336C51.2056 13.4685 51.3205 13.1593 51.3205 12.8059C51.3205 12.4348 51.2056 12.1167 50.9759 11.8516C50.7462 11.5866 50.3751 11.454 49.8626 11.454H43.8987ZM43.8987 17.0203V20.1481H50.6313C51.1438 20.1481 51.5502 20.0067 51.8506 19.724C52.1687 19.4236 52.3277 19.0437 52.3277 18.5842C52.3277 18.1071 52.1775 17.7272 51.8771 17.4444C51.5767 17.1617 51.1879 17.0203 50.7108 17.0203H43.8987Z" fill="white"/>
<path d="M57.7731 8.48535H61.0864V20.1481H71.1852V23.1433H57.7731V8.48535Z" fill="white"/>
<path d="M72.835 8.48535H76.1483V15.9866C76.1483 19.0613 77.5443 20.5987 80.3363 20.5987C83.1283 20.5987 84.5243 19.0613 84.5243 15.9866V8.48535H87.8376V15.9601C87.8376 18.3633 87.1661 20.2276 85.8231 21.5529C84.4801 22.8605 82.6512 23.5144 80.3363 23.5144C78.0214 23.5144 76.1925 22.8605 74.8495 21.5529C73.5065 20.2276 72.835 18.3633 72.835 15.9601V8.48535Z" fill="white"/>
<path d="M90.3623 23.1433V8.48535H103.801V11.4806H93.6756V14.5288H102.635V17.524H93.6756V23.1433H90.3623Z" fill="white"/>
<path d="M105.997 23.1433V8.48535H119.436V11.4806H109.31V14.5288H118.269V17.524H109.31V23.1433H105.997Z" fill="white"/>
<path d="M120.709 19.5119C121.168 19.0525 121.725 18.8228 122.379 18.8228C123.033 18.8228 123.589 19.0525 124.049 19.5119C124.508 19.9537 124.738 20.5015 124.738 21.1553C124.738 21.7915 124.508 22.3304 124.049 22.7722C123.589 23.1963 123.033 23.4083 122.379 23.4083C121.725 23.4083 121.168 23.1963 120.709 22.7722C120.267 22.3304 120.046 21.7915 120.046 21.1553C120.046 20.5015 120.267 19.9537 120.709 19.5119Z" fill="white"/>
<path d="M127.093 13.9167H129.592V23.1433H127.093V13.9167Z" fill="white"/>
<path d="M135.665 14.3082C134.921 15.0092 134.549 15.9605 134.549 17.1622C134.549 18.3638 134.921 19.3223 135.665 20.0376C136.423 20.7385 137.374 21.089 138.519 21.089C139.663 21.089 140.607 20.7385 141.351 20.0376C142.109 19.3223 142.489 18.3638 142.489 17.1622C142.489 15.9605 142.109 15.0092 141.351 14.3082C140.607 13.5929 139.663 13.2353 138.519 13.2353C137.374 13.2353 136.423 13.5929 135.665 14.3082ZM143.218 12.6774C144.52 13.8361 145.171 15.3311 145.171 17.1622C145.171 18.9933 144.52 20.4882 143.218 21.6469C141.931 22.8057 140.364 23.3851 138.519 23.3851C136.673 23.3851 135.1 22.8057 133.798 21.6469C132.51 20.4882 131.867 18.9933 131.867 17.1622C131.867 15.3311 132.51 13.8361 133.798 12.6774C135.1 11.5187 136.673 10.9393 138.519 10.9393C140.364 10.9393 141.931 11.5187 143.218 12.6774Z" fill="white"/>
<path d="M130.108 10.989C130.108 11.9264 129.348 12.6863 128.411 12.6863C127.474 12.6863 126.714 11.9264 126.714 10.989C126.714 10.0516 127.474 9.29166 128.411 9.29166C129.348 9.29166 130.108 10.0516 130.108 10.989Z" fill="white"/>
<defs>
<linearGradient id="paint0_linear_919_34740" x1="15.6098" y1="0.390625" x2="15.6098" y2="31.6101" gradientUnits="userSpaceOnUse">
<stop stop-color="#DE1B48"/>
<stop offset="1" stop-color="#C10133"/>
</linearGradient>
<clipPath id="clip0_919_34740">
<rect width="20.2927" height="20.2927" fill="white" transform="translate(5.46338 5.85352)"/>
</clipPath>
</defs>
</svg>
