<svg width="32" height="26" viewBox="0 0 32 26" fill="none" xmlns="http://www.w3.org/2000/svg">
<path d="M2.19983 11.1929C10.7897 7.52376 16.5177 5.10482 19.3837 3.9361C27.5667 0.599188 29.2671 0.0195303 30.3753 0.000185564C30.6191 -0.00382012 31.1641 0.0554054 31.5171 0.336259C31.8152 0.573406 31.8973 0.893759 31.9365 1.1186C31.9758 1.34344 32.0246 1.85564 31.9858 2.25585C31.5423 6.82384 29.6236 17.9091 28.6474 23.0253C28.2344 25.1902 27.4211 25.9161 26.6337 25.9871C24.9226 26.1415 23.6232 24.8784 21.9659 23.8133C19.3725 22.1466 17.9074 21.1091 15.3901 19.4827C12.4808 17.6031 14.3668 16.5701 16.0247 14.8818C16.4586 14.44 23.9979 7.71673 24.1439 7.10682C24.1621 7.03054 24.1791 6.74621 24.0068 6.59607C23.8345 6.44594 23.5802 6.49728 23.3967 6.53811C23.1366 6.59599 18.9936 9.28069 10.9678 14.5922C9.79181 15.3839 8.72666 15.7696 7.77232 15.7494C6.72023 15.7271 4.69644 15.1662 3.19196 14.6868C1.34666 14.0987 -0.119957 13.7877 0.0077523 12.789C0.074271 12.2688 0.804965 11.7368 2.19983 11.1929Z" fill="#555555"/>
</svg>
